<?xml version="1.0" encoding="UTF-8" standalone="no"?>
<!DOCTYPE svg PUBLIC "-//W3C//DTD SVG 1.1//EN"
 "http://www.w3.org/Graphics/SVG/1.1/DTD/svg11.dtd">
<!-- Generated by graphviz version 2.36.0 (20140111.2315)
 -->
<!-- Title: structs Pages: 1 -->
<svg width="750pt" height="811pt"
 viewBox="0.00 0.00 750.00 811.00" xmlns="http://www.w3.org/2000/svg" xmlns:xlink="http://www.w3.org/1999/xlink">
<g id="graph0" class="graph" transform="scale(1 1) rotate(0) translate(4 807)">
<title>structs</title>
<polygon fill="white" stroke="none" points="-4,4 -4,-807 746,-807 746,4 -4,4"/>
<text text-anchor="middle" x="371" y="-7.8" font-family="Times,serif" font-size="14.00">Clock</text>
<!-- xDomImage -->
<g id="node1" class="node"><title>xDomImage</title>
<polygon fill="none" stroke="black" points="466.5,-235.5 466.5,-304.5 545.5,-304.5 545.5,-235.5 466.5,-235.5"/>
<text text-anchor="middle" x="506" y="-289.3" font-family="Times,serif" font-size="14.00">start</text>
<polyline fill="none" stroke="black" points="466.5,-281.5 545.5,-281.5 "/>
<text text-anchor="middle" x="506" y="-266.3" font-family="Times,serif" font-size="14.00">DomImage</text>
<polyline fill="none" stroke="black" points="466.5,-258.5 545.5,-258.5 "/>
<text text-anchor="middle" x="506" y="-243.3" font-family="Times,serif" font-size="14.00">image</text>
</g>
<!-- xDrawImage -->
<g id="node5" class="node"><title>xDrawImage</title>
<polygon fill="none" stroke="black" points="382,-129.5 382,-198.5 538,-198.5 538,-129.5 382,-129.5"/>
<text text-anchor="middle" x="412" y="-183.3" font-family="Times,serif" font-size="14.00">element</text>
<polyline fill="none" stroke="black" points="442,-175.5 442,-198.5 "/>
<text text-anchor="middle" x="470" y="-183.3" font-family="Times,serif" font-size="14.00">context</text>
<polyline fill="none" stroke="black" points="498,-175.5 498,-198.5 "/>
<text text-anchor="middle" x="518" y="-183.3" font-family="Times,serif" font-size="14.00">start</text>
<polyline fill="none" stroke="black" points="382,-175.5 538,-175.5 "/>
<text text-anchor="middle" x="460" y="-160.3" font-family="Times,serif" font-size="14.00">DrawImage</text>
<polyline fill="none" stroke="black" points="382,-152.5 538,-152.5 "/>
<text text-anchor="middle" x="460" y="-137.3" font-family="Times,serif" font-size="14.00">context</text>
</g>
<!-- xDomImage&#45;&gt;xDrawImage -->
<g id="edge1" class="edge"><title>xDomImage:OUTPUT_image&#45;&gt;xDrawImage:INPUT_element</title>
<path fill="none" stroke="black" d="M465,-247C458.59,-247 461.332,-239.725 457,-235 442.531,-219.218 420.807,-222.563 414.068,-209.124"/>
<polygon fill="black" stroke="black" points="417.431,-208.097 412,-199 410.572,-209.498 417.431,-208.097"/>
</g>
<!-- xBodyEl -->
<g id="node2" class="node"><title>xBodyEl</title>
<polygon fill="none" stroke="black" points="440.5,-659.5 440.5,-728.5 505.5,-728.5 505.5,-659.5 440.5,-659.5"/>
<text text-anchor="middle" x="473" y="-713.3" font-family="Times,serif" font-size="14.00">selector</text>
<polyline fill="none" stroke="black" points="440.5,-705.5 505.5,-705.5 "/>
<text text-anchor="middle" x="473" y="-690.3" font-family="Times,serif" font-size="14.00">BodyEl</text>
<polyline fill="none" stroke="black" points="440.5,-682.5 505.5,-682.5 "/>
<text text-anchor="middle" x="473" y="-667.3" font-family="Times,serif" font-size="14.00">selection</text>
</g>
<!-- xSetCanvasHtml -->
<g id="node3" class="node"><title>xSetCanvasHtml</title>
<polygon fill="none" stroke="black" points="513,-553.5 513,-622.5 615,-622.5 615,-553.5 513,-553.5"/>
<text text-anchor="middle" x="543" y="-607.3" font-family="Times,serif" font-size="14.00">element</text>
<polyline fill="none" stroke="black" points="573,-599.5 573,-622.5 "/>
<text text-anchor="middle" x="594" y="-607.3" font-family="Times,serif" font-size="14.00">html</text>
<polyline fill="none" stroke="black" points="513,-599.5 615,-599.5 "/>
<text text-anchor="middle" x="564" y="-584.3" font-family="Times,serif" font-size="14.00">SetCanvasHtml</text>
<polyline fill="none" stroke="black" points="513,-576.5 615,-576.5 "/>
<text text-anchor="middle" x="564" y="-561.3" font-family="Times,serif" font-size="14.00">element</text>
</g>
<!-- xBodyEl&#45;&gt;xSetCanvasHtml -->
<g id="edge4" class="edge"><title>xBodyEl:OUTPUT_selection&#45;&gt;xSetCanvasHtml:INPUT_element</title>
<path fill="none" stroke="black" d="M507,-671C517.087,-671 507.202,-636.898 507.459,-620.113"/>
<polygon fill="black" stroke="black" points="510.672,-621.511 512,-611 504.407,-618.389 510.672,-621.511"/>
</g>
<!-- xCanvasEl -->
<g id="node6" class="node"><title>xCanvasEl</title>
<polygon fill="none" stroke="black" points="557.5,-447.5 557.5,-516.5 676.5,-516.5 676.5,-447.5 557.5,-447.5"/>
<text text-anchor="middle" x="587.5" y="-501.3" font-family="Times,serif" font-size="14.00">element</text>
<polyline fill="none" stroke="black" points="617.5,-493.5 617.5,-516.5 "/>
<text text-anchor="middle" x="647" y="-501.3" font-family="Times,serif" font-size="14.00">selector</text>
<polyline fill="none" stroke="black" points="557.5,-493.5 676.5,-493.5 "/>
<text text-anchor="middle" x="617" y="-478.3" font-family="Times,serif" font-size="14.00">CanvasEl</text>
<polyline fill="none" stroke="black" points="557.5,-470.5 676.5,-470.5 "/>
<text text-anchor="middle" x="617" y="-455.3" font-family="Times,serif" font-size="14.00">selection</text>
</g>
<!-- xSetCanvasHtml&#45;&gt;xCanvasEl -->
<g id="edge5" class="edge"><title>xSetCanvasHtml:OUTPUT_element&#45;&gt;xCanvasEl:INPUT_element</title>
<path fill="none" stroke="black" d="M616,-565C621.352,-565 616.946,-557.986 615,-553 609.128,-537.953 594.834,-536.898 589.27,-526.834"/>
<polygon fill="black" stroke="black" points="592.659,-525.957 587,-517 585.839,-527.531 592.659,-525.957"/>
</g>
<!-- xGetContext -->
<g id="node4" class="node"><title>xGetContext</title>
<polygon fill="none" stroke="black" points="577.5,-341.5 577.5,-410.5 656.5,-410.5 656.5,-341.5 577.5,-341.5"/>
<text text-anchor="middle" x="617" y="-395.3" font-family="Times,serif" font-size="14.00">canvas</text>
<polyline fill="none" stroke="black" points="577.5,-387.5 656.5,-387.5 "/>
<text text-anchor="middle" x="617" y="-372.3" font-family="Times,serif" font-size="14.00">GetContext</text>
<polyline fill="none" stroke="black" points="577.5,-364.5 656.5,-364.5 "/>
<text text-anchor="middle" x="617" y="-349.3" font-family="Times,serif" font-size="14.00">context</text>
</g>
<!-- xCanvasTranslate -->
<g id="node11" class="node"><title>xCanvasTranslate</title>
<polygon fill="none" stroke="black" points="563.5,-235.5 563.5,-304.5 670.5,-304.5 670.5,-235.5 563.5,-235.5"/>
<text text-anchor="middle" x="617" y="-289.3" font-family="Times,serif" font-size="14.00">context</text>
<polyline fill="none" stroke="black" points="563.5,-281.5 670.5,-281.5 "/>
<text text-anchor="middle" x="617" y="-266.3" font-family="Times,serif" font-size="14.00">CanvasTranslate</text>
<polyline fill="none" stroke="black" points="563.5,-258.5 670.5,-258.5 "/>
<text text-anchor="middle" x="617" y="-243.3" font-family="Times,serif" font-size="14.00">context</text>
</g>
<!-- xGetContext&#45;&gt;xCanvasTranslate -->
<g id="edge9" class="edge"><title>xGetContext:OUTPUT_context&#45;&gt;xCanvasTranslate:INPUT_context</title>
<path fill="none" stroke="black" d="M617,-341C617,-329 617,-323.75 617,-315.125"/>
<polygon fill="black" stroke="black" points="620.5,-315 617,-305 613.5,-315 620.5,-315"/>
</g>
<!-- xHand -->
<g id="node16" class="node"><title>xHand</title>
<polygon fill="none" stroke="black" points="386,-23.5 386,-92.5 488,-92.5 488,-23.5 386,-23.5"/>
<text text-anchor="middle" x="409" y="-77.3" font-family="Times,serif" font-size="14.00">angle</text>
<polyline fill="none" stroke="black" points="432,-69.5 432,-92.5 "/>
<text text-anchor="middle" x="460" y="-77.3" font-family="Times,serif" font-size="14.00">context</text>
<polyline fill="none" stroke="black" points="386,-69.5 488,-69.5 "/>
<text text-anchor="middle" x="437" y="-54.3" font-family="Times,serif" font-size="14.00">Hand</text>
<polyline fill="none" stroke="black" points="386,-46.5 488,-46.5 "/>
<text text-anchor="middle" x="437" y="-31.3" font-family="Times,serif" font-size="14.00">context</text>
</g>
<!-- xDrawImage&#45;&gt;xHand -->
<g id="edge18" class="edge"><title>xDrawImage:OUTPUT_context&#45;&gt;xHand:INPUT_context</title>
<path fill="none" stroke="black" d="M460,-129C460,-117 460,-111.75 460,-103.125"/>
<polygon fill="black" stroke="black" points="463.5,-103 460,-93 456.5,-103 463.5,-103"/>
</g>
<!-- xCanvasEl&#45;&gt;xGetContext -->
<g id="edge6" class="edge"><title>xCanvasEl:OUTPUT_selection&#45;&gt;xGetContext:INPUT_canvas</title>
<path fill="none" stroke="black" d="M617,-447C617,-435 617,-429.75 617,-421.125"/>
<polygon fill="black" stroke="black" points="620.5,-421 617,-411 613.5,-421 620.5,-421"/>
</g>
<!-- xMathDegreesToRadians -->
<g id="node7" class="node"><title>xMathDegreesToRadians</title>
<polygon fill="none" stroke="black" points="-0.5,-235.5 -0.5,-304.5 148.5,-304.5 148.5,-235.5 -0.5,-235.5"/>
<text text-anchor="middle" x="74" y="-289.3" font-family="Times,serif" font-size="14.00">in</text>
<polyline fill="none" stroke="black" points="-0.5,-281.5 148.5,-281.5 "/>
<text text-anchor="middle" x="74" y="-266.3" font-family="Times,serif" font-size="14.00">MathDegreesToRadians</text>
<polyline fill="none" stroke="black" points="-0.5,-258.5 148.5,-258.5 "/>
<text text-anchor="middle" x="74" y="-243.3" font-family="Times,serif" font-size="14.00">out</text>
</g>
<!-- xMathDegreesToRadians&#45;&gt;xDrawImage -->
<g id="edge3" class="edge"><title>xMathDegreesToRadians:OUTPUT_out&#45;&gt;xDrawImage:INPUT_start</title>
<path fill="none" stroke="black" d="M150,-247C156.174,-247 151.805,-238.337 157,-235 221.781,-193.381 492.115,-271.962 516.272,-208.87"/>
<polygon fill="black" stroke="black" points="519.723,-209.454 518,-199 512.828,-208.247 519.723,-209.454"/>
</g>
<!-- xMathDegreesToRadians&#45;&gt;xHand -->
<g id="edge8" class="edge"><title>xMathDegreesToRadians:OUTPUT_out&#45;&gt;xHand:INPUT_angle</title>
<path fill="none" stroke="black" d="M150,-247C156.174,-247 152.78,-239.508 157,-235 238.201,-148.256 261.413,-84.6859 374.848,-81.1548"/>
<polygon fill="black" stroke="black" points="375.055,-84.6522 385,-81 374.948,-77.653 375.055,-84.6522"/>
</g>
<!-- xDateCreate -->
<g id="node8" class="node"><title>xDateCreate</title>
<polygon fill="none" stroke="black" points="304.5,-553.5 304.5,-622.5 381.5,-622.5 381.5,-553.5 304.5,-553.5"/>
<text text-anchor="middle" x="343" y="-607.3" font-family="Times,serif" font-size="14.00">start</text>
<polyline fill="none" stroke="black" points="304.5,-599.5 381.5,-599.5 "/>
<text text-anchor="middle" x="343" y="-584.3" font-family="Times,serif" font-size="14.00">DateCreate</text>
<polyline fill="none" stroke="black" points="304.5,-576.5 381.5,-576.5 "/>
<text text-anchor="middle" x="343" y="-561.3" font-family="Times,serif" font-size="14.00">out</text>
</g>
<!-- xDateGetSeconds -->
<g id="node9" class="node"><title>xDateGetSeconds</title>
<polygon fill="none" stroke="black" points="266.5,-447.5 266.5,-516.5 373.5,-516.5 373.5,-447.5 266.5,-447.5"/>
<text text-anchor="middle" x="293" y="-501.3" font-family="Times,serif" font-size="14.00">date</text>
<polyline fill="none" stroke="black" points="319.5,-493.5 319.5,-516.5 "/>
<text text-anchor="middle" x="346.5" y="-501.3" font-family="Times,serif" font-size="14.00">start</text>
<polyline fill="none" stroke="black" points="266.5,-493.5 373.5,-493.5 "/>
<text text-anchor="middle" x="320" y="-478.3" font-family="Times,serif" font-size="14.00">DateGetSeconds</text>
<polyline fill="none" stroke="black" points="266.5,-470.5 373.5,-470.5 "/>
<text text-anchor="middle" x="320" y="-455.3" font-family="Times,serif" font-size="14.00">out</text>
</g>
<!-- xDateCreate&#45;&gt;xDateGetSeconds -->
<g id="edge7" class="edge"><title>xDateCreate:OUTPUT_out&#45;&gt;xDateGetSeconds:INPUT_date</title>
<path fill="none" stroke="black" d="M343,-553C343,-529.896 307.404,-539.645 296.281,-526.808"/>
<polygon fill="black" stroke="black" points="299.491,-525.373 293,-517 292.853,-527.594 299.491,-525.373"/>
</g>
<!-- xDateCreate&#45;&gt;xDateGetSeconds -->
<g id="edge17" class="edge"><title>xDateCreate:OUTPUT_out&#45;&gt;xDateGetSeconds:INPUT_start</title>
<path fill="none" stroke="black" d="M343,-553C343,-540.926 345.25,-535.768 346.375,-527.153"/>
<polygon fill="black" stroke="black" points="349.879,-527.196 347,-517 342.892,-526.766 349.879,-527.196"/>
</g>
<!-- xMathMultiply -->
<g id="node10" class="node"><title>xMathMultiply</title>
<polygon fill="none" stroke="black" points="144,-341.5 144,-410.5 238,-410.5 238,-341.5 144,-341.5"/>
<text text-anchor="middle" x="191" y="-395.3" font-family="Times,serif" font-size="14.00">x</text>
<polyline fill="none" stroke="black" points="144,-387.5 238,-387.5 "/>
<text text-anchor="middle" x="191" y="-372.3" font-family="Times,serif" font-size="14.00">MathMultiply</text>
<polyline fill="none" stroke="black" points="144,-364.5 238,-364.5 "/>
<text text-anchor="middle" x="191" y="-349.3" font-family="Times,serif" font-size="14.00">out</text>
</g>
<!-- xDateGetSeconds&#45;&gt;xMathMultiply -->
<g id="edge10" class="edge"><title>xDateGetSeconds:OUTPUT_out&#45;&gt;xMathMultiply:INPUT_x</title>
<path fill="none" stroke="black" d="M265,-459C240.478,-459 259.517,-416.285 248.608,-402.937"/>
<polygon fill="black" stroke="black" points="249.58,-399.553 239,-399 246.926,-406.03 249.58,-399.553"/>
</g>
<!-- xUtilWait -->
<g id="node12" class="node"><title>xUtilWait</title>
<polygon fill="none" stroke="black" points="294.5,-341.5 294.5,-410.5 359.5,-410.5 359.5,-341.5 294.5,-341.5"/>
<text text-anchor="middle" x="327" y="-395.3" font-family="Times,serif" font-size="14.00">in</text>
<polyline fill="none" stroke="black" points="294.5,-387.5 359.5,-387.5 "/>
<text text-anchor="middle" x="327" y="-372.3" font-family="Times,serif" font-size="14.00">UtilWait</text>
<polyline fill="none" stroke="black" points="294.5,-364.5 359.5,-364.5 "/>
<text text-anchor="middle" x="327" y="-349.3" font-family="Times,serif" font-size="14.00">out</text>
</g>
<!-- xDateGetSeconds&#45;&gt;xUtilWait -->
<g id="edge13" class="edge"><title>xDateGetSeconds:OUTPUT_out&#45;&gt;xUtilWait:INPUT_in</title>
<path fill="none" stroke="black" d="M320,-447C320,-434.775 323.938,-429.806 325.906,-421.209"/>
<polygon fill="black" stroke="black" points="329.415,-421.316 327,-411 322.455,-420.57 329.415,-421.316"/>
</g>
<!-- xMathMultiply&#45;&gt;xMathDegreesToRadians -->
<g id="edge11" class="edge"><title>xMathMultiply:OUTPUT_out&#45;&gt;xMathDegreesToRadians:INPUT_in</title>
<path fill="none" stroke="black" d="M143,-353C133.037,-353 149.113,-319.949 152.577,-302.908"/>
<polygon fill="black" stroke="black" points="155.904,-301.797 150,-293 149.13,-303.559 155.904,-301.797"/>
</g>
<!-- xConsoleLog -->
<g id="node13" class="node"><title>xConsoleLog</title>
<polygon fill="none" stroke="black" points="166.5,-247 166.5,-293 249.5,-293 249.5,-247 166.5,-247"/>
<text text-anchor="middle" x="208" y="-277.8" font-family="Times,serif" font-size="14.00">msg</text>
<polyline fill="none" stroke="black" points="166.5,-270 249.5,-270 "/>
<text text-anchor="middle" x="208" y="-254.8" font-family="Times,serif" font-size="14.00">ConsoleLog</text>
</g>
<!-- xMathMultiply&#45;&gt;xConsoleLog -->
<g id="edge12" class="edge"><title>xMathMultiply:OUTPUT_out&#45;&gt;xConsoleLog:INPUT_msg</title>
<path fill="none" stroke="black" d="M191,-341C191,-322.605 202.658,-317.678 206.666,-303.913"/>
<polygon fill="black" stroke="black" points="210.135,-304.377 208,-294 203.197,-303.444 210.135,-304.377"/>
</g>
<!-- xCanvasTranslate&#45;&gt;xDrawImage -->
<g id="edge2" class="edge"><title>xCanvasTranslate:OUTPUT_context&#45;&gt;xDrawImage:INPUT_context</title>
<path fill="none" stroke="black" d="M562,-247C555.59,-247 558.928,-239.099 554,-235 525.823,-211.562 480.102,-234.182 471.441,-208.981"/>
<polygon fill="black" stroke="black" points="474.893,-208.397 470,-199 467.965,-209.397 474.893,-208.397"/>
</g>
<!-- xDateCreate2 -->
<g id="node15" class="node"><title>xDateCreate2</title>
<polygon fill="none" stroke="black" points="268,-235.5 268,-304.5 352,-304.5 352,-235.5 268,-235.5"/>
<text text-anchor="middle" x="310" y="-289.3" font-family="Times,serif" font-size="14.00">start</text>
<polyline fill="none" stroke="black" points="268,-281.5 352,-281.5 "/>
<text text-anchor="middle" x="310" y="-266.3" font-family="Times,serif" font-size="14.00">DateCreate2</text>
<polyline fill="none" stroke="black" points="268,-258.5 352,-258.5 "/>
<text text-anchor="middle" x="310" y="-243.3" font-family="Times,serif" font-size="14.00">out</text>
</g>
<!-- xUtilWait&#45;&gt;xDateCreate2 -->
<g id="edge14" class="edge"><title>xUtilWait:OUTPUT_out&#45;&gt;xDateCreate2:INPUT_start</title>
<path fill="none" stroke="black" d="M327,-341C327,-327.315 316.831,-323.848 312.222,-314.793"/>
<polygon fill="black" stroke="black" points="315.626,-313.977 310,-305 308.8,-315.527 315.626,-313.977"/>
</g>
<!-- xSoundAlert -->
<g id="node17" class="node"><title>xSoundAlert</title>
<polygon fill="none" stroke="black" points="369.5,-247 369.5,-293 448.5,-293 448.5,-247 369.5,-247"/>
<text text-anchor="middle" x="409" y="-277.8" font-family="Times,serif" font-size="14.00">start</text>
<polyline fill="none" stroke="black" points="369.5,-270 448.5,-270 "/>
<text text-anchor="middle" x="409" y="-254.8" font-family="Times,serif" font-size="14.00">SoundAlert</text>
</g>
<!-- xUtilWait&#45;&gt;xSoundAlert -->
<g id="edge20" class="edge"><title>xUtilWait:OUTPUT_out&#45;&gt;xSoundAlert:INPUT_start</title>
<path fill="none" stroke="black" d="M361,-353C373.448,-353 360.89,-309.231 362.594,-290.423"/>
<polygon fill="black" stroke="black" points="365.544,-292.306 368,-282 359.653,-288.525 365.544,-292.306"/>
</g>
<!-- xStrokeText -->
<g id="node14" class="node"><title>xStrokeText</title>
<polygon fill="none" stroke="black" points="518.5,-766 518.5,-802 595.5,-802 595.5,-766 518.5,-766"/>
<text text-anchor="middle" x="557" y="-780.3" font-family="Times,serif" font-size="14.00">StrokeText</text>
</g>
<!-- xDateCreate2&#45;&gt;xDateGetSeconds -->
<g id="edge15" class="edge"><title>xDateCreate2:OUTPUT_out&#45;&gt;xDateGetSeconds:INPUT_date</title>
<path fill="none" stroke="black" d="M267,-247C260.673,-247 258.373,-448.074 262.852,-495.201"/>
<polygon fill="black" stroke="black" points="259.44,-495.982 265,-505 266.277,-494.482 259.44,-495.982"/>
</g>
<!-- xDateCreate2&#45;&gt;xDateGetSeconds -->
<g id="edge16" class="edge"><title>xDateCreate2:OUTPUT_out&#45;&gt;xDateGetSeconds:INPUT_start</title>
<path fill="none" stroke="black" d="M353,-247C359.491,-247 358.906,-298.602 360,-305 362.763,-321.156 365.752,-324.765 368,-341 374.473,-387.74 372.26,-399.846 374,-447 374.773,-467.933 391.97,-493.139 384.563,-501.855"/>
<polygon fill="black" stroke="black" points="383.406,-498.551 375,-505 385.593,-505.201 383.406,-498.551"/>
</g>
<!-- xHand&#45;&gt;xDrawImage -->
<g id="edge19" class="edge"><title>xHand:OUTPUT_context&#45;&gt;xDrawImage:INPUT_context</title>
<path fill="none" stroke="black" d="M489,-35C565.073,-35 591.395,-144.814 538,-199 529.713,-207.41 492.87,-212.514 477.148,-207.138"/>
<polygon fill="black" stroke="black" points="479.549,-204.589 470,-200 474.603,-209.543 479.549,-204.589"/>
</g>
<!-- xTemplate -->
<g id="node18" class="node"><title>xTemplate</title>
<polygon fill="none" stroke="black" points="614,-766 614,-802 682,-802 682,-766 614,-766"/>
<text text-anchor="middle" x="648" y="-780.3" font-family="Times,serif" font-size="14.00">Template</text>
</g>
<!-- xIIP0 -->
<g id="node19" class="node"><title>xIIP0</title>
</g>
<!-- xIIP0&#45;&gt;xDomImage -->
<g id="edge21" class="edge"><title>xIIP0&#45;&gt;xDomImage:INPUT_start</title>
<path fill="none" stroke="black" d="M506,-357.74C506,-346.228 506,-330.48 506,-315.332"/>
<polygon fill="black" stroke="black" points="509.5,-315 506,-305 502.5,-315 509.5,-315"/>
</g>
<!-- xIIP1 -->
<g id="node20" class="node"><title>xIIP1</title>
</g>
<!-- xIIP1&#45;&gt;xDateCreate -->
<g id="edge22" class="edge"><title>xIIP1&#45;&gt;xDateCreate:INPUT_start</title>
<path fill="none" stroke="black" d="M343,-675.74C343,-664.228 343,-648.48 343,-633.332"/>
<polygon fill="black" stroke="black" points="346.5,-633 343,-623 339.5,-633 346.5,-633"/>
</g>
<!-- xIIP2 -->
<g id="node21" class="node"><title>xIIP2</title>
<text text-anchor="middle" x="473" y="-780.3" font-family="Times,serif" font-size="14.00">&#39;body&#39;</text>
</g>
<!-- xIIP2&#45;&gt;xBodyEl -->
<g id="edge23" class="edge"><title>xIIP2&#45;&gt;xBodyEl:INPUT_selector</title>
<path fill="none" stroke="black" d="M473,-765.975C473,-758.169 473,-748.561 473,-739.106"/>
<polygon fill="black" stroke="black" points="476.5,-739 473,-729 469.5,-739 476.5,-739"/>
</g>
<!-- xIIP3 -->
<g id="node22" class="node"><title>xIIP3</title>
<text text-anchor="middle" x="633" y="-690.3" font-family="Times,serif" font-size="14.00">&#39;&lt;canvas height=&quot;450&quot; width=&quot;45...&#39;</text>
</g>
<!-- xIIP3&#45;&gt;xSetCanvasHtml -->
<g id="edge24" class="edge"><title>xIIP3&#45;&gt;xSetCanvasHtml:INPUT_html</title>
<path fill="none" stroke="black" d="M616.912,-675.752C608.016,-664.698 598.141,-649.418 595.009,-633.194"/>
<polygon fill="black" stroke="black" points="598.468,-632.606 594,-623 591.502,-633.296 598.468,-632.606"/>
</g>
<!-- xIIP4 -->
<g id="node23" class="node"><title>xIIP4</title>
<text text-anchor="middle" x="662" y="-584.3" font-family="Times,serif" font-size="14.00">&#39;canvas&#39;</text>
</g>
<!-- xIIP4&#45;&gt;xCanvasEl -->
<g id="edge25" class="edge"><title>xIIP4&#45;&gt;xCanvasEl:INPUT_selector</title>
<path fill="none" stroke="black" d="M656.244,-569.958C652.774,-558.439 648.776,-542.56 647.452,-527.072"/>
<polygon fill="black" stroke="black" points="650.945,-526.833 647,-517 643.952,-527.147 650.945,-526.833"/>
</g>
</g>
</svg>
