<?xml version="1.0" encoding="UTF-8" standalone="no"?>
<!DOCTYPE svg PUBLIC "-//W3C//DTD SVG 1.1//EN"
 "http://www.w3.org/Graphics/SVG/1.1/DTD/svg11.dtd">
<!-- Generated by graphviz version 2.36.0 (20140111.2315)
 -->
<!-- Title: structs Pages: 1 -->
<svg width="870pt" height="1977pt"
 viewBox="0.00 0.00 870.00 1977.00" xmlns="http://www.w3.org/2000/svg" xmlns:xlink="http://www.w3.org/1999/xlink">
<g id="graph0" class="graph" transform="scale(1 1) rotate(0) translate(4 1973)">
<title>structs</title>
<polygon fill="white" stroke="none" points="-4,4 -4,-1973 866,-1973 866,4 -4,4"/>
<text text-anchor="middle" x="431" y="-7.8" font-family="Times,serif" font-size="14.00">Clock</text>
<!-- xDomImage -->
<g id="node1" class="node"><title>xDomImage</title>
<polygon fill="none" stroke="black" points="466.5,-1401.5 466.5,-1470.5 545.5,-1470.5 545.5,-1401.5 466.5,-1401.5"/>
<text text-anchor="middle" x="506" y="-1455.3" font-family="Times,serif" font-size="14.00">start</text>
<polyline fill="none" stroke="black" points="466.5,-1447.5 545.5,-1447.5 "/>
<text text-anchor="middle" x="506" y="-1432.3" font-family="Times,serif" font-size="14.00">DomImage</text>
<polyline fill="none" stroke="black" points="466.5,-1424.5 545.5,-1424.5 "/>
<text text-anchor="middle" x="506" y="-1409.3" font-family="Times,serif" font-size="14.00">image</text>
</g>
<!-- xDrawImage -->
<g id="node5" class="node"><title>xDrawImage</title>
<polygon fill="none" stroke="black" points="397,-1295.5 397,-1364.5 553,-1364.5 553,-1295.5 397,-1295.5"/>
<text text-anchor="middle" x="427" y="-1349.3" font-family="Times,serif" font-size="14.00">element</text>
<polyline fill="none" stroke="black" points="457,-1341.5 457,-1364.5 "/>
<text text-anchor="middle" x="485" y="-1349.3" font-family="Times,serif" font-size="14.00">context</text>
<polyline fill="none" stroke="black" points="513,-1341.5 513,-1364.5 "/>
<text text-anchor="middle" x="533" y="-1349.3" font-family="Times,serif" font-size="14.00">start</text>
<polyline fill="none" stroke="black" points="397,-1341.5 553,-1341.5 "/>
<text text-anchor="middle" x="475" y="-1326.3" font-family="Times,serif" font-size="14.00">DrawImage</text>
<polyline fill="none" stroke="black" points="397,-1318.5 553,-1318.5 "/>
<text text-anchor="middle" x="475" y="-1303.3" font-family="Times,serif" font-size="14.00">context</text>
</g>
<!-- xDomImage&#45;&gt;xDrawImage -->
<g id="edge1" class="edge"><title>xDomImage:OUTPUT_image&#45;&gt;xDrawImage:INPUT_element</title>
<path fill="none" stroke="black" d="M506,-1401C506,-1366.48 442.785,-1395.79 429.451,-1374.73"/>
<polygon fill="black" stroke="black" points="432.836,-1373.84 427,-1365 426.048,-1375.55 432.836,-1373.84"/>
</g>
<!-- xBodyEl -->
<g id="node2" class="node"><title>xBodyEl</title>
<polygon fill="none" stroke="black" points="440.5,-1825.5 440.5,-1894.5 505.5,-1894.5 505.5,-1825.5 440.5,-1825.5"/>
<text text-anchor="middle" x="473" y="-1879.3" font-family="Times,serif" font-size="14.00">selector</text>
<polyline fill="none" stroke="black" points="440.5,-1871.5 505.5,-1871.5 "/>
<text text-anchor="middle" x="473" y="-1856.3" font-family="Times,serif" font-size="14.00">BodyEl</text>
<polyline fill="none" stroke="black" points="440.5,-1848.5 505.5,-1848.5 "/>
<text text-anchor="middle" x="473" y="-1833.3" font-family="Times,serif" font-size="14.00">selection</text>
</g>
<!-- xSetCanvasHtml -->
<g id="node3" class="node"><title>xSetCanvasHtml</title>
<polygon fill="none" stroke="black" points="513,-1719.5 513,-1788.5 615,-1788.5 615,-1719.5 513,-1719.5"/>
<text text-anchor="middle" x="543" y="-1773.3" font-family="Times,serif" font-size="14.00">element</text>
<polyline fill="none" stroke="black" points="573,-1765.5 573,-1788.5 "/>
<text text-anchor="middle" x="594" y="-1773.3" font-family="Times,serif" font-size="14.00">html</text>
<polyline fill="none" stroke="black" points="513,-1765.5 615,-1765.5 "/>
<text text-anchor="middle" x="564" y="-1750.3" font-family="Times,serif" font-size="14.00">SetCanvasHtml</text>
<polyline fill="none" stroke="black" points="513,-1742.5 615,-1742.5 "/>
<text text-anchor="middle" x="564" y="-1727.3" font-family="Times,serif" font-size="14.00">element</text>
</g>
<!-- xBodyEl&#45;&gt;xSetCanvasHtml -->
<g id="edge4" class="edge"><title>xBodyEl:OUTPUT_selection&#45;&gt;xSetCanvasHtml:INPUT_element</title>
<path fill="none" stroke="black" d="M507,-1837C517.087,-1837 507.202,-1802.9 507.459,-1786.11"/>
<polygon fill="black" stroke="black" points="510.672,-1787.51 512,-1777 504.407,-1784.39 510.672,-1787.51"/>
</g>
<!-- xCanvasEl -->
<g id="node6" class="node"><title>xCanvasEl</title>
<polygon fill="none" stroke="black" points="557.5,-1613.5 557.5,-1682.5 676.5,-1682.5 676.5,-1613.5 557.5,-1613.5"/>
<text text-anchor="middle" x="587.5" y="-1667.3" font-family="Times,serif" font-size="14.00">element</text>
<polyline fill="none" stroke="black" points="617.5,-1659.5 617.5,-1682.5 "/>
<text text-anchor="middle" x="647" y="-1667.3" font-family="Times,serif" font-size="14.00">selector</text>
<polyline fill="none" stroke="black" points="557.5,-1659.5 676.5,-1659.5 "/>
<text text-anchor="middle" x="617" y="-1644.3" font-family="Times,serif" font-size="14.00">CanvasEl</text>
<polyline fill="none" stroke="black" points="557.5,-1636.5 676.5,-1636.5 "/>
<text text-anchor="middle" x="617" y="-1621.3" font-family="Times,serif" font-size="14.00">selection</text>
</g>
<!-- xSetCanvasHtml&#45;&gt;xCanvasEl -->
<g id="edge5" class="edge"><title>xSetCanvasHtml:OUTPUT_element&#45;&gt;xCanvasEl:INPUT_element</title>
<path fill="none" stroke="black" d="M616,-1731C621.352,-1731 616.946,-1723.99 615,-1719 609.128,-1703.95 594.834,-1702.9 589.27,-1692.83"/>
<polygon fill="black" stroke="black" points="592.659,-1691.96 587,-1683 585.839,-1693.53 592.659,-1691.96"/>
</g>
<!-- xGetContext -->
<g id="node4" class="node"><title>xGetContext</title>
<polygon fill="none" stroke="black" points="577.5,-1507.5 577.5,-1576.5 656.5,-1576.5 656.5,-1507.5 577.5,-1507.5"/>
<text text-anchor="middle" x="617" y="-1561.3" font-family="Times,serif" font-size="14.00">canvas</text>
<polyline fill="none" stroke="black" points="577.5,-1553.5 656.5,-1553.5 "/>
<text text-anchor="middle" x="617" y="-1538.3" font-family="Times,serif" font-size="14.00">GetContext</text>
<polyline fill="none" stroke="black" points="577.5,-1530.5 656.5,-1530.5 "/>
<text text-anchor="middle" x="617" y="-1515.3" font-family="Times,serif" font-size="14.00">context</text>
</g>
<!-- xCanvasTranslate -->
<g id="node21" class="node"><title>xCanvasTranslate</title>
<polygon fill="none" stroke="black" points="563.5,-1401.5 563.5,-1470.5 670.5,-1470.5 670.5,-1401.5 563.5,-1401.5"/>
<text text-anchor="middle" x="617" y="-1455.3" font-family="Times,serif" font-size="14.00">context</text>
<polyline fill="none" stroke="black" points="563.5,-1447.5 670.5,-1447.5 "/>
<text text-anchor="middle" x="617" y="-1432.3" font-family="Times,serif" font-size="14.00">CanvasTranslate</text>
<polyline fill="none" stroke="black" points="563.5,-1424.5 670.5,-1424.5 "/>
<text text-anchor="middle" x="617" y="-1409.3" font-family="Times,serif" font-size="14.00">context</text>
</g>
<!-- xGetContext&#45;&gt;xCanvasTranslate -->
<g id="edge15" class="edge"><title>xGetContext:OUTPUT_context&#45;&gt;xCanvasTranslate:INPUT_context</title>
<path fill="none" stroke="black" d="M617,-1507C617,-1495 617,-1489.75 617,-1481.12"/>
<polygon fill="black" stroke="black" points="620.5,-1481 617,-1471 613.5,-1481 620.5,-1481"/>
</g>
<!-- xCanvasSave -->
<g id="node25" class="node"><title>xCanvasSave</title>
<polygon fill="none" stroke="black" points="364.5,-1189.5 364.5,-1258.5 447.5,-1258.5 447.5,-1189.5 364.5,-1189.5"/>
<text text-anchor="middle" x="406" y="-1243.3" font-family="Times,serif" font-size="14.00">context</text>
<polyline fill="none" stroke="black" points="364.5,-1235.5 447.5,-1235.5 "/>
<text text-anchor="middle" x="406" y="-1220.3" font-family="Times,serif" font-size="14.00">CanvasSave</text>
<polyline fill="none" stroke="black" points="364.5,-1212.5 447.5,-1212.5 "/>
<text text-anchor="middle" x="406" y="-1197.3" font-family="Times,serif" font-size="14.00">context</text>
</g>
<!-- xDrawImage&#45;&gt;xCanvasSave -->
<g id="edge29" class="edge"><title>xDrawImage:OUTPUT_context&#45;&gt;xCanvasSave:INPUT_context</title>
<path fill="none" stroke="black" d="M396,-1307C390.648,-1307 394.342,-1299.65 397,-1295 410.777,-1270.92 434.223,-1283.08 448,-1259 448.332,-1258.42 448.681,-1257.8 449.025,-1257.15"/>
<polygon fill="black" stroke="black" points="452.525,-1256.99 449,-1247 445.525,-1257.01 452.525,-1256.99"/>
</g>
<!-- xCanvasEl&#45;&gt;xGetContext -->
<g id="edge6" class="edge"><title>xCanvasEl:OUTPUT_selection&#45;&gt;xGetContext:INPUT_canvas</title>
<path fill="none" stroke="black" d="M617,-1613C617,-1601 617,-1595.75 617,-1587.12"/>
<polygon fill="black" stroke="black" points="620.5,-1587 617,-1577 613.5,-1587 620.5,-1587"/>
</g>
<!-- xMathDegreesToRadians -->
<g id="node7" class="node"><title>xMathDegreesToRadians</title>
<polygon fill="none" stroke="black" points="-0.5,-1401.5 -0.5,-1470.5 148.5,-1470.5 148.5,-1401.5 -0.5,-1401.5"/>
<text text-anchor="middle" x="74" y="-1455.3" font-family="Times,serif" font-size="14.00">in</text>
<polyline fill="none" stroke="black" points="-0.5,-1447.5 148.5,-1447.5 "/>
<text text-anchor="middle" x="74" y="-1432.3" font-family="Times,serif" font-size="14.00">MathDegreesToRadians</text>
<polyline fill="none" stroke="black" points="-0.5,-1424.5 148.5,-1424.5 "/>
<text text-anchor="middle" x="74" y="-1409.3" font-family="Times,serif" font-size="14.00">out</text>
</g>
<!-- xMathDegreesToRadians&#45;&gt;xDrawImage -->
<g id="edge3" class="edge"><title>xMathDegreesToRadians:OUTPUT_out&#45;&gt;xDrawImage:INPUT_start</title>
<path fill="none" stroke="black" d="M150,-1413C156.174,-1413 151.799,-1404.33 157,-1401 189.661,-1380.11 482.876,-1402.91 527.356,-1373.42"/>
<polygon fill="black" stroke="black" points="530.337,-1375.25 533,-1365 524.523,-1371.36 530.337,-1375.25"/>
</g>
<!-- xCanvasRotate -->
<g id="node18" class="node"><title>xCanvasRotate</title>
<polygon fill="none" stroke="black" points="324,-871.5 324,-940.5 426,-940.5 426,-871.5 324,-871.5"/>
<text text-anchor="middle" x="347" y="-925.3" font-family="Times,serif" font-size="14.00">angle</text>
<polyline fill="none" stroke="black" points="370,-917.5 370,-940.5 "/>
<text text-anchor="middle" x="398" y="-925.3" font-family="Times,serif" font-size="14.00">context</text>
<polyline fill="none" stroke="black" points="324,-917.5 426,-917.5 "/>
<text text-anchor="middle" x="375" y="-902.3" font-family="Times,serif" font-size="14.00">CanvasRotate</text>
<polyline fill="none" stroke="black" points="324,-894.5 426,-894.5 "/>
<text text-anchor="middle" x="375" y="-879.3" font-family="Times,serif" font-size="14.00">context</text>
</g>
<!-- xMathDegreesToRadians&#45;&gt;xCanvasRotate -->
<g id="edge12" class="edge"><title>xMathDegreesToRadians:OUTPUT_out&#45;&gt;xCanvasRotate:INPUT_angle</title>
<path fill="none" stroke="black" d="M150,-1413C152.849,-1413 232,-1227.85 232,-1225 232,-1225 232,-1225 232,-1117 232,-1027.71 230.307,-936.246 312.8,-929.409"/>
<polygon fill="black" stroke="black" points="313.148,-932.898 323,-929 312.868,-925.903 313.148,-932.898"/>
</g>
<!-- xDateCreate -->
<g id="node8" class="node"><title>xDateCreate</title>
<polygon fill="none" stroke="black" points="304.5,-1719.5 304.5,-1788.5 381.5,-1788.5 381.5,-1719.5 304.5,-1719.5"/>
<text text-anchor="middle" x="343" y="-1773.3" font-family="Times,serif" font-size="14.00">start</text>
<polyline fill="none" stroke="black" points="304.5,-1765.5 381.5,-1765.5 "/>
<text text-anchor="middle" x="343" y="-1750.3" font-family="Times,serif" font-size="14.00">DateCreate</text>
<polyline fill="none" stroke="black" points="304.5,-1742.5 381.5,-1742.5 "/>
<text text-anchor="middle" x="343" y="-1727.3" font-family="Times,serif" font-size="14.00">out</text>
</g>
<!-- xDateGetSeconds -->
<g id="node9" class="node"><title>xDateGetSeconds</title>
<polygon fill="none" stroke="black" points="266.5,-1613.5 266.5,-1682.5 373.5,-1682.5 373.5,-1613.5 266.5,-1613.5"/>
<text text-anchor="middle" x="293" y="-1667.3" font-family="Times,serif" font-size="14.00">date</text>
<polyline fill="none" stroke="black" points="319.5,-1659.5 319.5,-1682.5 "/>
<text text-anchor="middle" x="346.5" y="-1667.3" font-family="Times,serif" font-size="14.00">start</text>
<polyline fill="none" stroke="black" points="266.5,-1659.5 373.5,-1659.5 "/>
<text text-anchor="middle" x="320" y="-1644.3" font-family="Times,serif" font-size="14.00">DateGetSeconds</text>
<polyline fill="none" stroke="black" points="266.5,-1636.5 373.5,-1636.5 "/>
<text text-anchor="middle" x="320" y="-1621.3" font-family="Times,serif" font-size="14.00">out</text>
</g>
<!-- xDateCreate&#45;&gt;xDateGetSeconds -->
<g id="edge7" class="edge"><title>xDateCreate:OUTPUT_out&#45;&gt;xDateGetSeconds:INPUT_date</title>
<path fill="none" stroke="black" d="M343,-1719C343,-1695.9 307.404,-1705.65 296.281,-1692.81"/>
<polygon fill="black" stroke="black" points="299.491,-1691.37 293,-1683 292.853,-1693.59 299.491,-1691.37"/>
</g>
<!-- xDateCreate&#45;&gt;xDateGetSeconds -->
<g id="edge23" class="edge"><title>xDateCreate:OUTPUT_out&#45;&gt;xDateGetSeconds:INPUT_start</title>
<path fill="none" stroke="black" d="M343,-1719C343,-1706.93 345.25,-1701.77 346.375,-1693.15"/>
<polygon fill="black" stroke="black" points="349.879,-1693.2 347,-1683 342.892,-1692.77 349.879,-1693.2"/>
</g>
<!-- xMathMultiply -->
<g id="node17" class="node"><title>xMathMultiply</title>
<polygon fill="none" stroke="black" points="144,-1507.5 144,-1576.5 238,-1576.5 238,-1507.5 144,-1507.5"/>
<text text-anchor="middle" x="191" y="-1561.3" font-family="Times,serif" font-size="14.00">x</text>
<polyline fill="none" stroke="black" points="144,-1553.5 238,-1553.5 "/>
<text text-anchor="middle" x="191" y="-1538.3" font-family="Times,serif" font-size="14.00">MathMultiply</text>
<polyline fill="none" stroke="black" points="144,-1530.5 238,-1530.5 "/>
<text text-anchor="middle" x="191" y="-1515.3" font-family="Times,serif" font-size="14.00">out</text>
</g>
<!-- xDateGetSeconds&#45;&gt;xMathMultiply -->
<g id="edge16" class="edge"><title>xDateGetSeconds:OUTPUT_out&#45;&gt;xMathMultiply:INPUT_x</title>
<path fill="none" stroke="black" d="M265,-1625C240.478,-1625 259.517,-1582.29 248.608,-1568.94"/>
<polygon fill="black" stroke="black" points="249.58,-1565.55 239,-1565 246.926,-1572.03 249.58,-1565.55"/>
</g>
<!-- xUtilWait -->
<g id="node22" class="node"><title>xUtilWait</title>
<polygon fill="none" stroke="black" points="294.5,-1507.5 294.5,-1576.5 359.5,-1576.5 359.5,-1507.5 294.5,-1507.5"/>
<text text-anchor="middle" x="327" y="-1561.3" font-family="Times,serif" font-size="14.00">in</text>
<polyline fill="none" stroke="black" points="294.5,-1553.5 359.5,-1553.5 "/>
<text text-anchor="middle" x="327" y="-1538.3" font-family="Times,serif" font-size="14.00">UtilWait</text>
<polyline fill="none" stroke="black" points="294.5,-1530.5 359.5,-1530.5 "/>
<text text-anchor="middle" x="327" y="-1515.3" font-family="Times,serif" font-size="14.00">out</text>
</g>
<!-- xDateGetSeconds&#45;&gt;xUtilWait -->
<g id="edge19" class="edge"><title>xDateGetSeconds:OUTPUT_out&#45;&gt;xUtilWait:INPUT_in</title>
<path fill="none" stroke="black" d="M320,-1613C320,-1600.78 323.938,-1595.81 325.906,-1587.21"/>
<polygon fill="black" stroke="black" points="329.415,-1587.32 327,-1577 322.455,-1586.57 329.415,-1587.32"/>
</g>
<!-- xCanvasBeginPath -->
<g id="node10" class="node"><title>xCanvasBeginPath</title>
<polygon fill="none" stroke="black" points="341.5,-977.5 341.5,-1046.5 454.5,-1046.5 454.5,-977.5 341.5,-977.5"/>
<text text-anchor="middle" x="398" y="-1031.3" font-family="Times,serif" font-size="14.00">context</text>
<polyline fill="none" stroke="black" points="341.5,-1023.5 454.5,-1023.5 "/>
<text text-anchor="middle" x="398" y="-1008.3" font-family="Times,serif" font-size="14.00">CanvasBeginPath</text>
<polyline fill="none" stroke="black" points="341.5,-1000.5 454.5,-1000.5 "/>
<text text-anchor="middle" x="398" y="-985.3" font-family="Times,serif" font-size="14.00">context</text>
</g>
<!-- xCanvasBeginPath&#45;&gt;xCanvasRotate -->
<g id="edge24" class="edge"><title>xCanvasBeginPath:OUTPUT_context&#45;&gt;xCanvasRotate:INPUT_context</title>
<path fill="none" stroke="black" d="M398,-977C398,-965 398,-959.75 398,-951.125"/>
<polygon fill="black" stroke="black" points="401.5,-951 398,-941 394.5,-951 401.5,-951"/>
</g>
<!-- xCanvasMoveTo -->
<g id="node11" class="node"><title>xCanvasMoveTo</title>
<polygon fill="none" stroke="black" points="338,-765.5 338,-834.5 442,-834.5 442,-765.5 338,-765.5"/>
<text text-anchor="middle" x="390" y="-819.3" font-family="Times,serif" font-size="14.00">context</text>
<polyline fill="none" stroke="black" points="338,-811.5 442,-811.5 "/>
<text text-anchor="middle" x="390" y="-796.3" font-family="Times,serif" font-size="14.00">CanvasMoveTo</text>
<polyline fill="none" stroke="black" points="338,-788.5 442,-788.5 "/>
<text text-anchor="middle" x="390" y="-773.3" font-family="Times,serif" font-size="14.00">context</text>
</g>
<!-- xCanvasLineTo -->
<g id="node12" class="node"><title>xCanvasLineTo</title>
<polygon fill="none" stroke="black" points="344,-659.5 344,-728.5 440,-728.5 440,-659.5 344,-659.5"/>
<text text-anchor="middle" x="392" y="-713.3" font-family="Times,serif" font-size="14.00">context</text>
<polyline fill="none" stroke="black" points="344,-705.5 440,-705.5 "/>
<text text-anchor="middle" x="392" y="-690.3" font-family="Times,serif" font-size="14.00">CanvasLineTo</text>
<polyline fill="none" stroke="black" points="344,-682.5 440,-682.5 "/>
<text text-anchor="middle" x="392" y="-667.3" font-family="Times,serif" font-size="14.00">context</text>
</g>
<!-- xCanvasMoveTo&#45;&gt;xCanvasLineTo -->
<g id="edge8" class="edge"><title>xCanvasMoveTo:OUTPUT_context&#45;&gt;xCanvasLineTo:INPUT_context</title>
<path fill="none" stroke="black" d="M390,-765C390,-752.981 391.125,-747.755 391.688,-739.132"/>
<polygon fill="black" stroke="black" points="395.19,-739.103 392,-729 388.193,-738.887 395.19,-739.103"/>
</g>
<!-- xCanvasLineTo2 -->
<g id="node13" class="node"><title>xCanvasLineTo2</title>
<polygon fill="none" stroke="black" points="347.5,-553.5 347.5,-622.5 450.5,-622.5 450.5,-553.5 347.5,-553.5"/>
<text text-anchor="middle" x="399" y="-607.3" font-family="Times,serif" font-size="14.00">context</text>
<polyline fill="none" stroke="black" points="347.5,-599.5 450.5,-599.5 "/>
<text text-anchor="middle" x="399" y="-584.3" font-family="Times,serif" font-size="14.00">CanvasLineTo2</text>
<polyline fill="none" stroke="black" points="347.5,-576.5 450.5,-576.5 "/>
<text text-anchor="middle" x="399" y="-561.3" font-family="Times,serif" font-size="14.00">context</text>
</g>
<!-- xCanvasLineTo&#45;&gt;xCanvasLineTo2 -->
<g id="edge9" class="edge"><title>xCanvasLineTo:OUTPUT_context&#45;&gt;xCanvasLineTo2:INPUT_context</title>
<path fill="none" stroke="black" d="M392,-659C392,-646.775 395.938,-641.806 397.906,-633.209"/>
<polygon fill="black" stroke="black" points="401.415,-633.316 399,-623 394.455,-632.57 401.415,-633.316"/>
</g>
<!-- xCanvasLineTo3 -->
<g id="node14" class="node"><title>xCanvasLineTo3</title>
<polygon fill="none" stroke="black" points="349.5,-447.5 349.5,-516.5 452.5,-516.5 452.5,-447.5 349.5,-447.5"/>
<text text-anchor="middle" x="401" y="-501.3" font-family="Times,serif" font-size="14.00">context</text>
<polyline fill="none" stroke="black" points="349.5,-493.5 452.5,-493.5 "/>
<text text-anchor="middle" x="401" y="-478.3" font-family="Times,serif" font-size="14.00">CanvasLineTo3</text>
<polyline fill="none" stroke="black" points="349.5,-470.5 452.5,-470.5 "/>
<text text-anchor="middle" x="401" y="-455.3" font-family="Times,serif" font-size="14.00">context</text>
</g>
<!-- xCanvasLineTo2&#45;&gt;xCanvasLineTo3 -->
<g id="edge10" class="edge"><title>xCanvasLineTo2:OUTPUT_context&#45;&gt;xCanvasLineTo3:INPUT_context</title>
<path fill="none" stroke="black" d="M399,-553C399,-540.981 400.125,-535.755 400.688,-527.132"/>
<polygon fill="black" stroke="black" points="404.19,-527.103 401,-517 397.193,-526.887 404.19,-527.103"/>
</g>
<!-- xCanvasLineTo4 -->
<g id="node15" class="node"><title>xCanvasLineTo4</title>
<polygon fill="none" stroke="black" points="351.5,-341.5 351.5,-410.5 454.5,-410.5 454.5,-341.5 351.5,-341.5"/>
<text text-anchor="middle" x="403" y="-395.3" font-family="Times,serif" font-size="14.00">context</text>
<polyline fill="none" stroke="black" points="351.5,-387.5 454.5,-387.5 "/>
<text text-anchor="middle" x="403" y="-372.3" font-family="Times,serif" font-size="14.00">CanvasLineTo4</text>
<polyline fill="none" stroke="black" points="351.5,-364.5 454.5,-364.5 "/>
<text text-anchor="middle" x="403" y="-349.3" font-family="Times,serif" font-size="14.00">context</text>
</g>
<!-- xCanvasLineTo3&#45;&gt;xCanvasLineTo4 -->
<g id="edge11" class="edge"><title>xCanvasLineTo3:OUTPUT_context&#45;&gt;xCanvasLineTo4:INPUT_context</title>
<path fill="none" stroke="black" d="M401,-447C401,-434.981 402.125,-429.755 402.688,-421.132"/>
<polygon fill="black" stroke="black" points="406.19,-421.103 403,-411 399.193,-420.887 406.19,-421.103"/>
</g>
<!-- xCanvasFill -->
<g id="node20" class="node"><title>xCanvasFill</title>
<polygon fill="none" stroke="black" points="367.5,-235.5 367.5,-304.5 442.5,-304.5 442.5,-235.5 367.5,-235.5"/>
<text text-anchor="middle" x="405" y="-289.3" font-family="Times,serif" font-size="14.00">context</text>
<polyline fill="none" stroke="black" points="367.5,-281.5 442.5,-281.5 "/>
<text text-anchor="middle" x="405" y="-266.3" font-family="Times,serif" font-size="14.00">CanvasFill</text>
<polyline fill="none" stroke="black" points="367.5,-258.5 442.5,-258.5 "/>
<text text-anchor="middle" x="405" y="-243.3" font-family="Times,serif" font-size="14.00">context</text>
</g>
<!-- xCanvasLineTo4&#45;&gt;xCanvasFill -->
<g id="edge13" class="edge"><title>xCanvasLineTo4:OUTPUT_context&#45;&gt;xCanvasFill:INPUT_context</title>
<path fill="none" stroke="black" d="M403,-341C403,-328.981 404.125,-323.755 404.688,-315.132"/>
<polygon fill="black" stroke="black" points="408.19,-315.103 405,-305 401.193,-314.887 408.19,-315.103"/>
</g>
<!-- xCanvasStroke -->
<g id="node16" class="node"><title>xCanvasStroke</title>
<polygon fill="none" stroke="black" points="363,-129.5 363,-198.5 455,-198.5 455,-129.5 363,-129.5"/>
<text text-anchor="middle" x="409" y="-183.3" font-family="Times,serif" font-size="14.00">context</text>
<polyline fill="none" stroke="black" points="363,-175.5 455,-175.5 "/>
<text text-anchor="middle" x="409" y="-160.3" font-family="Times,serif" font-size="14.00">CanvasStroke</text>
<polyline fill="none" stroke="black" points="363,-152.5 455,-152.5 "/>
<text text-anchor="middle" x="409" y="-137.3" font-family="Times,serif" font-size="14.00">context</text>
</g>
<!-- xCanvasRestore -->
<g id="node27" class="node"><title>xCanvasRestore</title>
<polygon fill="none" stroke="black" points="398,-23.5 398,-92.5 496,-92.5 496,-23.5 398,-23.5"/>
<text text-anchor="middle" x="447" y="-77.3" font-family="Times,serif" font-size="14.00">context</text>
<polyline fill="none" stroke="black" points="398,-69.5 496,-69.5 "/>
<text text-anchor="middle" x="447" y="-54.3" font-family="Times,serif" font-size="14.00">CanvasRestore</text>
<polyline fill="none" stroke="black" points="398,-46.5 496,-46.5 "/>
<text text-anchor="middle" x="447" y="-31.3" font-family="Times,serif" font-size="14.00">context</text>
</g>
<!-- xCanvasStroke&#45;&gt;xCanvasRestore -->
<g id="edge26" class="edge"><title>xCanvasStroke:OUTPUT_context&#45;&gt;xCanvasRestore:INPUT_context</title>
<path fill="none" stroke="black" d="M409,-129C409,-109.916 434.571,-113.572 443.76,-102.66"/>
<polygon fill="black" stroke="black" points="447.138,-103.594 447,-93 440.502,-101.368 447.138,-103.594"/>
</g>
<!-- xMathMultiply&#45;&gt;xMathDegreesToRadians -->
<g id="edge17" class="edge"><title>xMathMultiply:OUTPUT_out&#45;&gt;xMathDegreesToRadians:INPUT_in</title>
<path fill="none" stroke="black" d="M143,-1519C133.037,-1519 149.113,-1485.95 152.577,-1468.91"/>
<polygon fill="black" stroke="black" points="155.904,-1467.8 150,-1459 149.13,-1469.56 155.904,-1467.8"/>
</g>
<!-- xConsoleLog -->
<g id="node23" class="node"><title>xConsoleLog</title>
<polygon fill="none" stroke="black" points="166.5,-1413 166.5,-1459 249.5,-1459 249.5,-1413 166.5,-1413"/>
<text text-anchor="middle" x="208" y="-1443.8" font-family="Times,serif" font-size="14.00">msg</text>
<polyline fill="none" stroke="black" points="166.5,-1436 249.5,-1436 "/>
<text text-anchor="middle" x="208" y="-1420.8" font-family="Times,serif" font-size="14.00">ConsoleLog</text>
</g>
<!-- xMathMultiply&#45;&gt;xConsoleLog -->
<g id="edge18" class="edge"><title>xMathMultiply:OUTPUT_out&#45;&gt;xConsoleLog:INPUT_msg</title>
<path fill="none" stroke="black" d="M191,-1507C191,-1488.6 202.658,-1483.68 206.666,-1469.91"/>
<polygon fill="black" stroke="black" points="210.135,-1470.38 208,-1460 203.197,-1469.44 210.135,-1470.38"/>
</g>
<!-- xCanvasRotate&#45;&gt;xCanvasMoveTo -->
<g id="edge25" class="edge"><title>xCanvasRotate:OUTPUT_context&#45;&gt;xCanvasMoveTo:INPUT_context</title>
<path fill="none" stroke="black" d="M375,-871C375,-857.729 383.793,-853.837 387.914,-844.963"/>
<polygon fill="black" stroke="black" points="391.377,-845.505 390,-835 384.525,-844.071 391.377,-845.505"/>
</g>
<!-- xSetHandAttributes -->
<g id="node19" class="node"><title>xSetHandAttributes</title>
<polygon fill="none" stroke="black" points="339.5,-1083.5 339.5,-1152.5 456.5,-1152.5 456.5,-1083.5 339.5,-1083.5"/>
<text text-anchor="middle" x="398" y="-1137.3" font-family="Times,serif" font-size="14.00">context</text>
<polyline fill="none" stroke="black" points="339.5,-1129.5 456.5,-1129.5 "/>
<text text-anchor="middle" x="398" y="-1114.3" font-family="Times,serif" font-size="14.00">SetHandAttributes</text>
<polyline fill="none" stroke="black" points="339.5,-1106.5 456.5,-1106.5 "/>
<text text-anchor="middle" x="398" y="-1091.3" font-family="Times,serif" font-size="14.00">context</text>
</g>
<!-- xSetHandAttributes&#45;&gt;xCanvasBeginPath -->
<g id="edge28" class="edge"><title>xSetHandAttributes:OUTPUT_context&#45;&gt;xCanvasBeginPath:INPUT_context</title>
<path fill="none" stroke="black" d="M398,-1083C398,-1071 398,-1065.75 398,-1057.12"/>
<polygon fill="black" stroke="black" points="401.5,-1057 398,-1047 394.5,-1057 401.5,-1057"/>
</g>
<!-- xCanvasFill&#45;&gt;xCanvasStroke -->
<g id="edge14" class="edge"><title>xCanvasFill:OUTPUT_context&#45;&gt;xCanvasStroke:INPUT_context</title>
<path fill="none" stroke="black" d="M405,-235C405,-222.926 407.25,-217.768 408.375,-209.153"/>
<polygon fill="black" stroke="black" points="411.879,-209.196 409,-199 404.892,-208.766 411.879,-209.196"/>
</g>
<!-- xCanvasTranslate&#45;&gt;xDrawImage -->
<g id="edge2" class="edge"><title>xCanvasTranslate:OUTPUT_context&#45;&gt;xDrawImage:INPUT_context</title>
<path fill="none" stroke="black" d="M562,-1413C555.59,-1413 558.769,-1405.28 554,-1401 531.283,-1380.59 494.9,-1395.12 486.685,-1375"/>
<polygon fill="black" stroke="black" points="490.112,-1374.28 485,-1365 483.209,-1375.44 490.112,-1374.28"/>
</g>
<!-- xDateCreate2 -->
<g id="node26" class="node"><title>xDateCreate2</title>
<polygon fill="none" stroke="black" points="268,-1401.5 268,-1470.5 352,-1470.5 352,-1401.5 268,-1401.5"/>
<text text-anchor="middle" x="310" y="-1455.3" font-family="Times,serif" font-size="14.00">start</text>
<polyline fill="none" stroke="black" points="268,-1447.5 352,-1447.5 "/>
<text text-anchor="middle" x="310" y="-1432.3" font-family="Times,serif" font-size="14.00">DateCreate2</text>
<polyline fill="none" stroke="black" points="268,-1424.5 352,-1424.5 "/>
<text text-anchor="middle" x="310" y="-1409.3" font-family="Times,serif" font-size="14.00">out</text>
</g>
<!-- xUtilWait&#45;&gt;xDateCreate2 -->
<g id="edge20" class="edge"><title>xUtilWait:OUTPUT_out&#45;&gt;xDateCreate2:INPUT_start</title>
<path fill="none" stroke="black" d="M327,-1507C327,-1493.31 316.831,-1489.85 312.222,-1480.79"/>
<polygon fill="black" stroke="black" points="315.626,-1479.98 310,-1471 308.8,-1481.53 315.626,-1479.98"/>
</g>
<!-- xSoundAlert -->
<g id="node29" class="node"><title>xSoundAlert</title>
<polygon fill="none" stroke="black" points="369.5,-1413 369.5,-1459 448.5,-1459 448.5,-1413 369.5,-1413"/>
<text text-anchor="middle" x="409" y="-1443.8" font-family="Times,serif" font-size="14.00">start</text>
<polyline fill="none" stroke="black" points="369.5,-1436 448.5,-1436 "/>
<text text-anchor="middle" x="409" y="-1420.8" font-family="Times,serif" font-size="14.00">SoundAlert</text>
</g>
<!-- xUtilWait&#45;&gt;xSoundAlert -->
<g id="edge31" class="edge"><title>xUtilWait:OUTPUT_out&#45;&gt;xSoundAlert:INPUT_start</title>
<path fill="none" stroke="black" d="M361,-1519C373.448,-1519 360.89,-1475.23 362.594,-1456.42"/>
<polygon fill="black" stroke="black" points="365.544,-1458.31 368,-1448 359.653,-1454.53 365.544,-1458.31"/>
</g>
<!-- xCanvasStrokeText -->
<g id="node24" class="node"><title>xCanvasStrokeText</title>
<polygon fill="none" stroke="black" points="518,-1932 518,-1968 634,-1968 634,-1932 518,-1932"/>
<text text-anchor="middle" x="576" y="-1946.3" font-family="Times,serif" font-size="14.00">CanvasStrokeText</text>
</g>
<!-- xCanvasSave&#45;&gt;xSetHandAttributes -->
<g id="edge27" class="edge"><title>xCanvasSave:OUTPUT_context&#45;&gt;xSetHandAttributes:INPUT_context</title>
<path fill="none" stroke="black" d="M406,-1189C406,-1176.58 401.406,-1171.72 399.18,-1162.97"/>
<polygon fill="black" stroke="black" points="402.652,-1162.52 398,-1153 395.701,-1163.34 402.652,-1162.52"/>
</g>
<!-- xDateCreate2&#45;&gt;xDateGetSeconds -->
<g id="edge21" class="edge"><title>xDateCreate2:OUTPUT_out&#45;&gt;xDateGetSeconds:INPUT_date</title>
<path fill="none" stroke="black" d="M267,-1413C260.673,-1413 258.373,-1614.07 262.852,-1661.2"/>
<polygon fill="black" stroke="black" points="259.44,-1661.98 265,-1671 266.277,-1660.48 259.44,-1661.98"/>
</g>
<!-- xDateCreate2&#45;&gt;xDateGetSeconds -->
<g id="edge22" class="edge"><title>xDateCreate2:OUTPUT_out&#45;&gt;xDateGetSeconds:INPUT_start</title>
<path fill="none" stroke="black" d="M353,-1413C359.491,-1413 358.906,-1464.6 360,-1471 362.763,-1487.16 365.752,-1490.76 368,-1507 374.473,-1553.74 372.26,-1565.85 374,-1613 374.773,-1633.93 391.97,-1659.14 384.563,-1667.86"/>
<polygon fill="black" stroke="black" points="383.406,-1664.55 375,-1671 385.593,-1671.2 383.406,-1664.55"/>
</g>
<!-- xCanvasRestore&#45;&gt;xDrawImage -->
<g id="edge30" class="edge"><title>xCanvasRestore:OUTPUT_context&#45;&gt;xDrawImage:INPUT_context</title>
<path fill="none" stroke="black" d="M497,-35C601.137,-35 485,-164.863 485,-269 485,-1119 485,-1119 485,-1119 485,-1202.86 537.628,-1212.56 553,-1295 558.703,-1325.58 574.837,-1342.84 553,-1365 544.713,-1373.41 507.87,-1378.51 492.148,-1373.14"/>
<polygon fill="black" stroke="black" points="494.549,-1370.59 485,-1366 489.603,-1375.54 494.549,-1370.59"/>
</g>
<!-- xSetHandAttributes2 -->
<g id="node28" class="node"><title>xSetHandAttributes2</title>
<polygon fill="none" stroke="black" points="652,-1932 652,-1968 776,-1968 776,-1932 652,-1932"/>
<text text-anchor="middle" x="714" y="-1946.3" font-family="Times,serif" font-size="14.00">SetHandAttributes2</text>
</g>
<!-- xTemplate -->
<g id="node30" class="node"><title>xTemplate</title>
<polygon fill="none" stroke="black" points="794,-1932 794,-1968 862,-1968 862,-1932 794,-1932"/>
<text text-anchor="middle" x="828" y="-1946.3" font-family="Times,serif" font-size="14.00">Template</text>
</g>
<!-- xIIP0 -->
<g id="node31" class="node"><title>xIIP0</title>
</g>
<!-- xIIP0&#45;&gt;xDomImage -->
<g id="edge32" class="edge"><title>xIIP0&#45;&gt;xDomImage:INPUT_start</title>
<path fill="none" stroke="black" d="M506,-1523.74C506,-1512.23 506,-1496.48 506,-1481.33"/>
<polygon fill="black" stroke="black" points="509.5,-1481 506,-1471 502.5,-1481 509.5,-1481"/>
</g>
<!-- xIIP1 -->
<g id="node32" class="node"><title>xIIP1</title>
</g>
<!-- xIIP1&#45;&gt;xDateCreate -->
<g id="edge33" class="edge"><title>xIIP1&#45;&gt;xDateCreate:INPUT_start</title>
<path fill="none" stroke="black" d="M343,-1841.74C343,-1830.23 343,-1814.48 343,-1799.33"/>
<polygon fill="black" stroke="black" points="346.5,-1799 343,-1789 339.5,-1799 346.5,-1799"/>
</g>
<!-- xIIP2 -->
<g id="node33" class="node"><title>xIIP2</title>
<text text-anchor="middle" x="473" y="-1946.3" font-family="Times,serif" font-size="14.00">&#39;body&#39;</text>
</g>
<!-- xIIP2&#45;&gt;xBodyEl -->
<g id="edge34" class="edge"><title>xIIP2&#45;&gt;xBodyEl:INPUT_selector</title>
<path fill="none" stroke="black" d="M473,-1931.98C473,-1924.17 473,-1914.56 473,-1905.11"/>
<polygon fill="black" stroke="black" points="476.5,-1905 473,-1895 469.5,-1905 476.5,-1905"/>
</g>
<!-- xIIP3 -->
<g id="node34" class="node"><title>xIIP3</title>
<text text-anchor="middle" x="633" y="-1856.3" font-family="Times,serif" font-size="14.00">&#39;&lt;canvas height=&quot;450&quot; width=&quot;45...&#39;</text>
</g>
<!-- xIIP3&#45;&gt;xSetCanvasHtml -->
<g id="edge35" class="edge"><title>xIIP3&#45;&gt;xSetCanvasHtml:INPUT_html</title>
<path fill="none" stroke="black" d="M616.912,-1841.75C608.016,-1830.7 598.141,-1815.42 595.009,-1799.19"/>
<polygon fill="black" stroke="black" points="598.468,-1798.61 594,-1789 591.502,-1799.3 598.468,-1798.61"/>
</g>
<!-- xIIP4 -->
<g id="node35" class="node"><title>xIIP4</title>
<text text-anchor="middle" x="662" y="-1750.3" font-family="Times,serif" font-size="14.00">&#39;canvas&#39;</text>
</g>
<!-- xIIP4&#45;&gt;xCanvasEl -->
<g id="edge36" class="edge"><title>xIIP4&#45;&gt;xCanvasEl:INPUT_selector</title>
<path fill="none" stroke="black" d="M656.244,-1735.96C652.774,-1724.44 648.776,-1708.56 647.452,-1693.07"/>
<polygon fill="black" stroke="black" points="650.945,-1692.83 647,-1683 643.952,-1693.15 650.945,-1692.83"/>
</g>
</g>
</svg>
