<?xml version="1.0" encoding="UTF-8" standalone="no"?>
<!DOCTYPE svg PUBLIC "-//W3C//DTD SVG 1.1//EN"
 "http://www.w3.org/Graphics/SVG/1.1/DTD/svg11.dtd">
<!-- Generated by graphviz version 2.36.0 (20140111.2315)
 -->
<!-- Title: structs Pages: 1 -->
<svg width="203pt" height="1339pt"
 viewBox="0.00 0.00 203.00 1339.00" xmlns="http://www.w3.org/2000/svg" xmlns:xlink="http://www.w3.org/1999/xlink">
<g id="graph0" class="graph" transform="scale(1 1) rotate(0) translate(4 1335)">
<title>structs</title>
<polygon fill="white" stroke="none" points="-4,4 -4,-1335 199,-1335 199,4 -4,4"/>
<text text-anchor="middle" x="97.5" y="-7.8" font-family="Times,serif" font-size="14.00">Hand</text>
<!-- xCanvasBeginPath -->
<g id="node1" class="node"><title>xCanvasBeginPath</title>
<polygon fill="none" stroke="black" points="1.5,-977.5 1.5,-1046.5 114.5,-1046.5 114.5,-977.5 1.5,-977.5"/>
<text text-anchor="middle" x="58" y="-1031.3" font-family="Times,serif" font-size="14.00">context</text>
<polyline fill="none" stroke="black" points="1.5,-1023.5 114.5,-1023.5 "/>
<text text-anchor="middle" x="58" y="-1008.3" font-family="Times,serif" font-size="14.00">CanvasBeginPath</text>
<polyline fill="none" stroke="black" points="1.5,-1000.5 114.5,-1000.5 "/>
<text text-anchor="middle" x="58" y="-985.3" font-family="Times,serif" font-size="14.00">context</text>
</g>
<!-- xRotate -->
<g id="node8" class="node"><title>xRotate</title>
<polygon fill="none" stroke="black" points="57,-871.5 57,-940.5 159,-940.5 159,-871.5 57,-871.5"/>
<text text-anchor="middle" x="85" y="-925.3" font-family="Times,serif" font-size="14.00">context</text>
<polyline fill="none" stroke="black" points="113,-917.5 113,-940.5 "/>
<text text-anchor="middle" x="136" y="-925.3" font-family="Times,serif" font-size="14.00">angle</text>
<polyline fill="none" stroke="black" points="57,-917.5 159,-917.5 "/>
<text text-anchor="middle" x="108" y="-902.3" font-family="Times,serif" font-size="14.00">Rotate</text>
<polyline fill="none" stroke="black" points="57,-894.5 159,-894.5 "/>
<text text-anchor="middle" x="108" y="-879.3" font-family="Times,serif" font-size="14.00">context</text>
</g>
<!-- xCanvasBeginPath&#45;&gt;xRotate -->
<g id="edge3" class="edge"><title>xCanvasBeginPath:OUTPUT_context&#45;&gt;xRotate:INPUT_context</title>
<path fill="none" stroke="black" d="M116,-989C121.352,-989 117.029,-981.952 115,-977 108.706,-961.643 93.3929,-961.126 87.4315,-951.011"/>
<polygon fill="black" stroke="black" points="90.7614,-949.891 85,-941 83.9592,-951.544 90.7614,-949.891"/>
</g>
<!-- xCanvasMoveTo -->
<g id="node2" class="node"><title>xCanvasMoveTo</title>
<polygon fill="none" stroke="black" points="56,-765.5 56,-834.5 160,-834.5 160,-765.5 56,-765.5"/>
<text text-anchor="middle" x="108" y="-819.3" font-family="Times,serif" font-size="14.00">context</text>
<polyline fill="none" stroke="black" points="56,-811.5 160,-811.5 "/>
<text text-anchor="middle" x="108" y="-796.3" font-family="Times,serif" font-size="14.00">CanvasMoveTo</text>
<polyline fill="none" stroke="black" points="56,-788.5 160,-788.5 "/>
<text text-anchor="middle" x="108" y="-773.3" font-family="Times,serif" font-size="14.00">context</text>
</g>
<!-- xDrawLine -->
<g id="node3" class="node"><title>xDrawLine</title>
<polygon fill="none" stroke="black" points="72.5,-659.5 72.5,-728.5 143.5,-728.5 143.5,-659.5 72.5,-659.5"/>
<text text-anchor="middle" x="108" y="-713.3" font-family="Times,serif" font-size="14.00">context</text>
<polyline fill="none" stroke="black" points="72.5,-705.5 143.5,-705.5 "/>
<text text-anchor="middle" x="108" y="-690.3" font-family="Times,serif" font-size="14.00">DrawLine</text>
<polyline fill="none" stroke="black" points="72.5,-682.5 143.5,-682.5 "/>
<text text-anchor="middle" x="108" y="-667.3" font-family="Times,serif" font-size="14.00">context</text>
</g>
<!-- xCanvasMoveTo&#45;&gt;xDrawLine -->
<g id="edge5" class="edge"><title>xCanvasMoveTo:OUTPUT_context&#45;&gt;xDrawLine:INPUT_context</title>
<path fill="none" stroke="black" d="M108,-765C108,-753 108,-747.75 108,-739.125"/>
<polygon fill="black" stroke="black" points="111.5,-739 108,-729 104.5,-739 111.5,-739"/>
</g>
<!-- xDrawLine2 -->
<g id="node4" class="node"><title>xDrawLine2</title>
<polygon fill="none" stroke="black" points="69,-553.5 69,-622.5 147,-622.5 147,-553.5 69,-553.5"/>
<text text-anchor="middle" x="108" y="-607.3" font-family="Times,serif" font-size="14.00">context</text>
<polyline fill="none" stroke="black" points="69,-599.5 147,-599.5 "/>
<text text-anchor="middle" x="108" y="-584.3" font-family="Times,serif" font-size="14.00">DrawLine2</text>
<polyline fill="none" stroke="black" points="69,-576.5 147,-576.5 "/>
<text text-anchor="middle" x="108" y="-561.3" font-family="Times,serif" font-size="14.00">context</text>
</g>
<!-- xDrawLine&#45;&gt;xDrawLine2 -->
<g id="edge6" class="edge"><title>xDrawLine:OUTPUT_context&#45;&gt;xDrawLine2:INPUT_context</title>
<path fill="none" stroke="black" d="M108,-659C108,-647 108,-641.75 108,-633.125"/>
<polygon fill="black" stroke="black" points="111.5,-633 108,-623 104.5,-633 111.5,-633"/>
</g>
<!-- xDrawLine3 -->
<g id="node5" class="node"><title>xDrawLine3</title>
<polygon fill="none" stroke="black" points="69,-447.5 69,-516.5 147,-516.5 147,-447.5 69,-447.5"/>
<text text-anchor="middle" x="108" y="-501.3" font-family="Times,serif" font-size="14.00">context</text>
<polyline fill="none" stroke="black" points="69,-493.5 147,-493.5 "/>
<text text-anchor="middle" x="108" y="-478.3" font-family="Times,serif" font-size="14.00">DrawLine3</text>
<polyline fill="none" stroke="black" points="69,-470.5 147,-470.5 "/>
<text text-anchor="middle" x="108" y="-455.3" font-family="Times,serif" font-size="14.00">context</text>
</g>
<!-- xDrawLine2&#45;&gt;xDrawLine3 -->
<g id="edge7" class="edge"><title>xDrawLine2:OUTPUT_context&#45;&gt;xDrawLine3:INPUT_context</title>
<path fill="none" stroke="black" d="M108,-553C108,-541 108,-535.75 108,-527.125"/>
<polygon fill="black" stroke="black" points="111.5,-527 108,-517 104.5,-527 111.5,-527"/>
</g>
<!-- xDrawLine4 -->
<g id="node6" class="node"><title>xDrawLine4</title>
<polygon fill="none" stroke="black" points="69,-341.5 69,-410.5 147,-410.5 147,-341.5 69,-341.5"/>
<text text-anchor="middle" x="108" y="-395.3" font-family="Times,serif" font-size="14.00">context</text>
<polyline fill="none" stroke="black" points="69,-387.5 147,-387.5 "/>
<text text-anchor="middle" x="108" y="-372.3" font-family="Times,serif" font-size="14.00">DrawLine4</text>
<polyline fill="none" stroke="black" points="69,-364.5 147,-364.5 "/>
<text text-anchor="middle" x="108" y="-349.3" font-family="Times,serif" font-size="14.00">context</text>
</g>
<!-- xDrawLine3&#45;&gt;xDrawLine4 -->
<g id="edge8" class="edge"><title>xDrawLine3:OUTPUT_context&#45;&gt;xDrawLine4:INPUT_context</title>
<path fill="none" stroke="black" d="M108,-447C108,-435 108,-429.75 108,-421.125"/>
<polygon fill="black" stroke="black" points="111.5,-421 108,-411 104.5,-421 111.5,-421"/>
</g>
<!-- xFillLine -->
<g id="node10" class="node"><title>xFillLine</title>
<polygon fill="none" stroke="black" points="78,-235.5 78,-304.5 138,-304.5 138,-235.5 78,-235.5"/>
<text text-anchor="middle" x="108" y="-289.3" font-family="Times,serif" font-size="14.00">context</text>
<polyline fill="none" stroke="black" points="78,-281.5 138,-281.5 "/>
<text text-anchor="middle" x="108" y="-266.3" font-family="Times,serif" font-size="14.00">FillLine</text>
<polyline fill="none" stroke="black" points="78,-258.5 138,-258.5 "/>
<text text-anchor="middle" x="108" y="-243.3" font-family="Times,serif" font-size="14.00">context</text>
</g>
<!-- xDrawLine4&#45;&gt;xFillLine -->
<g id="edge9" class="edge"><title>xDrawLine4:OUTPUT_context&#45;&gt;xFillLine:INPUT_context</title>
<path fill="none" stroke="black" d="M108,-341C108,-329 108,-323.75 108,-315.125"/>
<polygon fill="black" stroke="black" points="111.5,-315 108,-305 104.5,-315 111.5,-315"/>
</g>
<!-- xStroke -->
<g id="node7" class="node"><title>xStroke</title>
<polygon fill="none" stroke="black" points="80,-129.5 80,-198.5 136,-198.5 136,-129.5 80,-129.5"/>
<text text-anchor="middle" x="108" y="-183.3" font-family="Times,serif" font-size="14.00">context</text>
<polyline fill="none" stroke="black" points="80,-175.5 136,-175.5 "/>
<text text-anchor="middle" x="108" y="-160.3" font-family="Times,serif" font-size="14.00">Stroke</text>
<polyline fill="none" stroke="black" points="80,-152.5 136,-152.5 "/>
<text text-anchor="middle" x="108" y="-137.3" font-family="Times,serif" font-size="14.00">context</text>
</g>
<!-- xCanvasRestore -->
<g id="node12" class="node"><title>xCanvasRestore</title>
<polygon fill="none" stroke="black" points="59,-23.5 59,-92.5 157,-92.5 157,-23.5 59,-23.5"/>
<text text-anchor="middle" x="108" y="-77.3" font-family="Times,serif" font-size="14.00">context</text>
<polyline fill="none" stroke="black" points="59,-69.5 157,-69.5 "/>
<text text-anchor="middle" x="108" y="-54.3" font-family="Times,serif" font-size="14.00">CanvasRestore</text>
<polyline fill="none" stroke="black" points="59,-46.5 157,-46.5 "/>
<text text-anchor="middle" x="108" y="-31.3" font-family="Times,serif" font-size="14.00">context</text>
</g>
<!-- xStroke&#45;&gt;xCanvasRestore -->
<g id="edge11" class="edge"><title>xStroke:OUTPUT_context&#45;&gt;xCanvasRestore:INPUT_context</title>
<path fill="none" stroke="black" d="M108,-129C108,-117 108,-111.75 108,-103.125"/>
<polygon fill="black" stroke="black" points="111.5,-103 108,-93 104.5,-103 111.5,-103"/>
</g>
<!-- xRotate&#45;&gt;xCanvasMoveTo -->
<g id="edge4" class="edge"><title>xRotate:OUTPUT_context&#45;&gt;xCanvasMoveTo:INPUT_context</title>
<path fill="none" stroke="black" d="M108,-871C108,-859 108,-853.75 108,-845.125"/>
<polygon fill="black" stroke="black" points="111.5,-845 108,-835 104.5,-845 111.5,-845"/>
</g>
<!-- xSetHandAttributes -->
<g id="node9" class="node"><title>xSetHandAttributes</title>
<polygon fill="none" stroke="black" points="-0.5,-1083.5 -0.5,-1152.5 116.5,-1152.5 116.5,-1083.5 -0.5,-1083.5"/>
<text text-anchor="middle" x="58" y="-1137.3" font-family="Times,serif" font-size="14.00">context</text>
<polyline fill="none" stroke="black" points="-0.5,-1129.5 116.5,-1129.5 "/>
<text text-anchor="middle" x="58" y="-1114.3" font-family="Times,serif" font-size="14.00">SetHandAttributes</text>
<polyline fill="none" stroke="black" points="-0.5,-1106.5 116.5,-1106.5 "/>
<text text-anchor="middle" x="58" y="-1091.3" font-family="Times,serif" font-size="14.00">context</text>
</g>
<!-- xSetHandAttributes&#45;&gt;xCanvasBeginPath -->
<g id="edge2" class="edge"><title>xSetHandAttributes:OUTPUT_context&#45;&gt;xCanvasBeginPath:INPUT_context</title>
<path fill="none" stroke="black" d="M58,-1083C58,-1071 58,-1065.75 58,-1057.12"/>
<polygon fill="black" stroke="black" points="61.5001,-1057 58,-1047 54.5001,-1057 61.5001,-1057"/>
</g>
<!-- xFillLine&#45;&gt;xStroke -->
<g id="edge10" class="edge"><title>xFillLine:OUTPUT_context&#45;&gt;xStroke:INPUT_context</title>
<path fill="none" stroke="black" d="M108,-235C108,-223 108,-217.75 108,-209.125"/>
<polygon fill="black" stroke="black" points="111.5,-209 108,-199 104.5,-209 111.5,-209"/>
</g>
<!-- xCanvasSave -->
<g id="node11" class="node"><title>xCanvasSave</title>
<polygon fill="none" stroke="black" points="16.5,-1189.5 16.5,-1258.5 99.5,-1258.5 99.5,-1189.5 16.5,-1189.5"/>
<text text-anchor="middle" x="58" y="-1243.3" font-family="Times,serif" font-size="14.00">context</text>
<polyline fill="none" stroke="black" points="16.5,-1235.5 99.5,-1235.5 "/>
<text text-anchor="middle" x="58" y="-1220.3" font-family="Times,serif" font-size="14.00">CanvasSave</text>
<polyline fill="none" stroke="black" points="16.5,-1212.5 99.5,-1212.5 "/>
<text text-anchor="middle" x="58" y="-1197.3" font-family="Times,serif" font-size="14.00">context</text>
</g>
<!-- xCanvasSave&#45;&gt;xSetHandAttributes -->
<g id="edge1" class="edge"><title>xCanvasSave:OUTPUT_context&#45;&gt;xSetHandAttributes:INPUT_context</title>
<path fill="none" stroke="black" d="M58,-1189C58,-1177 58,-1171.75 58,-1163.12"/>
<polygon fill="black" stroke="black" points="61.5001,-1163 58,-1153 54.5001,-1163 61.5001,-1163"/>
</g>
<!-- xIIP0 -->
<g id="node13" class="node"><title>xIIP0</title>
<text text-anchor="middle" x="58" y="-1309.3" font-family="Times,serif" font-size="14.00">&lt;context&gt;</text>
</g>
<!-- xIIP0&#45;&gt;xCanvasSave -->
<g id="edge12" class="edge"><title>xIIP0&#45;&gt;xCanvasSave:INPUT_context</title>
<path fill="none" stroke="black" d="M58,-1294.81C58,-1287.28 58,-1278.1 58,-1269.06"/>
<polygon fill="black" stroke="black" points="61.5001,-1269 58,-1259 54.5001,-1269 61.5001,-1269"/>
</g>
<!-- xIIP1 -->
<g id="node14" class="node"><title>xIIP1</title>
<text text-anchor="middle" x="164" y="-1008.3" font-family="Times,serif" font-size="14.00">&lt;angle&gt;</text>
</g>
<!-- xIIP1&#45;&gt;xRotate -->
<g id="edge13" class="edge"><title>xIIP1&#45;&gt;xRotate:INPUT_angle</title>
<path fill="none" stroke="black" d="M152.934,-993.919C146.513,-982.657 139.232,-967.121 136.822,-951.353"/>
<polygon fill="black" stroke="black" points="140.28,-950.692 136,-941 133.302,-951.246 140.28,-950.692"/>
</g>
</g>
</svg>
